<mxfile host="app.diagrams.net" modified="2022-05-02T09:06:02.129Z" agent="5.0 (Macintosh; Intel Mac OS X 10_15_7) AppleWebKit/537.36 (KHTML, like Gecko) Chrome/100.0.4896.127 Safari/537.36" etag="dE5DLmbP_PVdsBLa8Wkn" version="17.4.6" type="github">
  <diagram id="3228e29e-7158-1315-38df-8450db1d8a1d" name="Page-1">
    <mxGraphModel dx="865" dy="466" grid="0" gridSize="10" guides="1" tooltips="1" connect="1" arrows="1" fold="1" page="1" pageScale="1" pageWidth="500" pageHeight="229" background="#EFF1F3" math="0" shadow="0">
      <root>
        <mxCell id="0" />
        <mxCell id="1" parent="0" />
        <mxCell id="23iM9Gp5Ji6-i4gFpPbt-2" value="" style="rounded=1;whiteSpace=wrap;html=1;fillColor=none;strokeColor=#9AC7BF;strokeWidth=2;" parent="1" vertex="1">
          <mxGeometry x="56" y="19" width="388" height="291" as="geometry" />
        </mxCell>
        <mxCell id="23iM9Gp5Ji6-i4gFpPbt-3" value="&lt;font size=&quot;1&quot; color=&quot;#4a919b&quot;&gt;&lt;b style=&quot;font-size: 20px&quot;&gt;server层&lt;/b&gt;&lt;/font&gt;" style="text;html=1;strokeColor=none;fillColor=none;align=center;verticalAlign=middle;whiteSpace=wrap;rounded=0;" parent="1" vertex="1">
          <mxGeometry x="81" y="22" width="102" height="32" as="geometry" />
        </mxCell>
        <mxCell id="23iM9Gp5Ji6-i4gFpPbt-4" value="&lt;font style=&quot;font-size: 16px&quot; color=&quot;#000000&quot;&gt;连接管理&lt;/font&gt;" style="rounded=1;whiteSpace=wrap;html=1;fontSize=22;fontColor=#FFFFFF;fillColor=#9AC7BF;strokeColor=none;" parent="1" vertex="1">
          <mxGeometry x="201.5" y="28" width="96" height="40" as="geometry" />
        </mxCell>
        <mxCell id="23iM9Gp5Ji6-i4gFpPbt-7" value="&lt;font color=&quot;#000000&quot;&gt;&lt;span style=&quot;font-size: 16px&quot;&gt;分析器&lt;/span&gt;&lt;/font&gt;" style="rounded=1;whiteSpace=wrap;html=1;fontSize=22;fontColor=#FFFFFF;fillColor=#9AC7BF;strokeColor=none;" parent="1" vertex="1">
          <mxGeometry x="201.5" y="105" width="96" height="40" as="geometry" />
        </mxCell>
        <mxCell id="23iM9Gp5Ji6-i4gFpPbt-9" value="" style="shape=flexArrow;endArrow=classic;html=1;rounded=0;fontSize=16;fontColor=#000000;fillColor=#FDD276;strokeColor=none;" parent="1" edge="1">
          <mxGeometry width="50" height="50" relative="1" as="geometry">
            <mxPoint x="250.08000000000004" y="69" as="sourcePoint" />
            <mxPoint x="250" y="104" as="targetPoint" />
          </mxGeometry>
        </mxCell>
        <mxCell id="23iM9Gp5Ji6-i4gFpPbt-13" value="&lt;font color=&quot;#000000&quot;&gt;&lt;span style=&quot;font-size: 16px&quot;&gt;执行器&lt;/span&gt;&lt;/font&gt;" style="rounded=1;whiteSpace=wrap;html=1;fontSize=22;fontColor=#FFFFFF;fillColor=#9AC7BF;strokeColor=none;" parent="1" vertex="1">
          <mxGeometry x="200.5" y="262" width="96" height="40" as="geometry" />
        </mxCell>
        <mxCell id="23iM9Gp5Ji6-i4gFpPbt-15" value="&lt;font style=&quot;font-size: 12px&quot;&gt;管理查询连接&lt;/font&gt;" style="text;html=1;strokeColor=none;fillColor=none;align=center;verticalAlign=middle;whiteSpace=wrap;rounded=0;fontSize=16;fontColor=#000000;" parent="1" vertex="1">
          <mxGeometry x="297.5" y="32.5" width="118" height="31" as="geometry" />
        </mxCell>
        <mxCell id="23iM9Gp5Ji6-i4gFpPbt-16" value="&lt;font style=&quot;font-size: 12px&quot;&gt;sql词法语法分析&lt;/font&gt;" style="text;html=1;strokeColor=none;fillColor=none;align=center;verticalAlign=middle;whiteSpace=wrap;rounded=0;fontSize=16;fontColor=#000000;" parent="1" vertex="1">
          <mxGeometry x="299" y="109.5" width="118" height="31" as="geometry" />
        </mxCell>
        <mxCell id="23iM9Gp5Ji6-i4gFpPbt-17" value="&lt;font style=&quot;font-size: 12px&quot;&gt;选择索引&lt;/font&gt;" style="text;html=1;strokeColor=none;fillColor=none;align=center;verticalAlign=middle;whiteSpace=wrap;rounded=0;fontSize=16;fontColor=#000000;" parent="1" vertex="1">
          <mxGeometry x="299" y="188" width="118" height="31" as="geometry" />
        </mxCell>
        <mxCell id="23iM9Gp5Ji6-i4gFpPbt-18" value="&lt;font style=&quot;font-size: 12px&quot;&gt;调用引擎层接口&lt;/font&gt;" style="text;html=1;strokeColor=none;fillColor=none;align=center;verticalAlign=middle;whiteSpace=wrap;rounded=0;fontSize=16;fontColor=#000000;" parent="1" vertex="1">
          <mxGeometry x="301.5" y="266.5" width="118" height="31" as="geometry" />
        </mxCell>
        <mxCell id="23iM9Gp5Ji6-i4gFpPbt-19" value="" style="rounded=1;whiteSpace=wrap;html=1;fillColor=none;strokeColor=#4A919B;strokeWidth=2;" parent="1" vertex="1">
          <mxGeometry x="56" y="320.5" width="388" height="113.5" as="geometry" />
        </mxCell>
        <mxCell id="23iM9Gp5Ji6-i4gFpPbt-21" value="&lt;font&gt;&lt;span style=&quot;font-size: 16px&quot;&gt;MEMORY&lt;/span&gt;&lt;/font&gt;" style="rounded=1;whiteSpace=wrap;html=1;fontSize=22;fontColor=#FFFFFF;fillColor=#4A919B;strokeColor=none;" parent="1" vertex="1">
          <mxGeometry x="321.5" y="356" width="106" height="66" as="geometry" />
        </mxCell>
        <mxCell id="23iM9Gp5Ji6-i4gFpPbt-22" value="&lt;font&gt;&lt;span style=&quot;font-size: 16px&quot;&gt;InnoDB&lt;/span&gt;&lt;/font&gt;" style="rounded=1;whiteSpace=wrap;html=1;fontSize=22;fontColor=#FFFFFF;fillColor=#4A919B;strokeColor=none;" parent="1" vertex="1">
          <mxGeometry x="195.5" y="356" width="106" height="66" as="geometry" />
        </mxCell>
        <mxCell id="23iM9Gp5Ji6-i4gFpPbt-23" value="&lt;font&gt;&lt;span style=&quot;font-size: 16px&quot;&gt;MyISAM&lt;/span&gt;&lt;/font&gt;" style="rounded=1;whiteSpace=wrap;html=1;fontSize=22;fontColor=#FFFFFF;fillColor=#4A919B;strokeColor=none;" parent="1" vertex="1">
          <mxGeometry x="72.5" y="356" width="106" height="66" as="geometry" />
        </mxCell>
        <mxCell id="23iM9Gp5Ji6-i4gFpPbt-24" value="" style="shape=flexArrow;endArrow=classic;html=1;rounded=0;fontSize=16;fontColor=#000000;fillColor=#FDD276;strokeColor=none;" parent="1" edge="1">
          <mxGeometry width="50" height="50" relative="1" as="geometry">
            <mxPoint x="248" y="306" as="sourcePoint" />
            <mxPoint x="248.08000000000004" y="353" as="targetPoint" />
          </mxGeometry>
        </mxCell>
        <mxCell id="23iM9Gp5Ji6-i4gFpPbt-25" value="&lt;font size=&quot;1&quot; color=&quot;#4a919b&quot;&gt;&lt;b style=&quot;font-size: 18px&quot;&gt;存储引擎层&lt;/b&gt;&lt;/font&gt;" style="text;html=1;strokeColor=none;fillColor=none;align=center;verticalAlign=middle;whiteSpace=wrap;rounded=0;" parent="1" vertex="1">
          <mxGeometry x="75.5" y="320.5" width="107.5" height="32.5" as="geometry" />
        </mxCell>
        <mxCell id="M6mOt85n85NVgl_5BVDo-2" value="&lt;font color=&quot;#000000&quot;&gt;&lt;span style=&quot;font-size: 16px&quot;&gt;优化器&lt;/span&gt;&lt;/font&gt;" style="rounded=1;whiteSpace=wrap;html=1;fontSize=22;fontColor=#FFFFFF;fillColor=#9AC7BF;strokeColor=none;" vertex="1" parent="1">
          <mxGeometry x="201" y="183.5" width="96" height="40" as="geometry" />
        </mxCell>
        <mxCell id="M6mOt85n85NVgl_5BVDo-3" value="" style="shape=flexArrow;endArrow=classic;html=1;rounded=0;fontSize=16;fontColor=#000000;fillColor=#FDD276;strokeColor=none;" edge="1" parent="1">
          <mxGeometry width="50" height="50" relative="1" as="geometry">
            <mxPoint x="249.58000000000004" y="146.5" as="sourcePoint" />
            <mxPoint x="249.5" y="181.5" as="targetPoint" />
          </mxGeometry>
        </mxCell>
        <mxCell id="M6mOt85n85NVgl_5BVDo-4" value="" style="shape=flexArrow;endArrow=classic;html=1;rounded=0;fontSize=16;fontColor=#000000;fillColor=#FDD276;strokeColor=none;" edge="1" parent="1">
          <mxGeometry width="50" height="50" relative="1" as="geometry">
            <mxPoint x="248.79000000000005" y="225" as="sourcePoint" />
            <mxPoint x="248.71" y="260" as="targetPoint" />
          </mxGeometry>
        </mxCell>
      </root>
    </mxGraphModel>
  </diagram>
</mxfile>
